<?xml version="1.0" encoding="utf-8"?>
<!-- Generator: Adobe Illustrator 25.2.3, SVG Export Plug-In . SVG Version: 6.00 Build 0)  -->
<svg version="1.1" id="Layer_1" xmlns="http://www.w3.org/2000/svg" xmlns:xlink="http://www.w3.org/1999/xlink" x="0px" y="0px"
	 viewBox="0 0 792 612" style="enable-background:new 0 0 792 612;" xml:space="preserve">
<style type="text/css">
	.st0{display:none;}
	.st1{display:inline;fill:#F48FAD;}
	.st2{font-family:'FiraSans-Bold';}
	.st3{font-size:196.0136px;}
	.st4{display:inline;}
	.st5{fill:#404E52;}
	.st6{display:inline;fill:#FFFFFF;}
	.st7{fill:#779AD0;}
	.st8{fill:#FDFEFE;}
	.st9{fill:#EA75BB;}
	.st10{fill:none;stroke:#0E111F;stroke-miterlimit:10;}
	.st11{font-family:'FiraCode-Regular';}
	.st12{font-size:6px;}
</style>
<g id="Layer_2_1_">
</g>
<g id="Layer_1_1_" class="st0">
	<text transform="matrix(0.9895 0 0 1 96.292 330.79)" class="st1 st2 st3">DENO</text>
	<g transform="translate(0.000000,1024.000000) scale(0.100000,-0.100000)" class="st4">
	</g>
	<g class="st4">
		<rect x="-239.5" y="228.7" class="st5" width="7.6" height="15.2"/>
		<path class="st5" d="M-33.1,213.9v-30.5H-48v-14.6h-6.4v-15.3h-7.4v-14.9h-15.3v-15.3h-22.8v-14.8h-26.7v-15h-31.3V78.8h-74v14.7
			h-29.4v15h-29.6v14.8h-22.3v15.3h-14.4v14.9h-7.3v15.3h-8v14.6h-7.1v30.5h-15.2v76.2h15.2v28.7h7.1v15.8h8v14.8h7.3v15.3h14.4
			v14.4h22.3v15.3h29.6v14.8h29.4V424h74v-14.8h31.3v-14.8h26.7v-15.3h22.8v-14.4h15.3v-15.3h7.4v-14.8h6.4v-15.8h14.8v-28.7h15.8
			v-76.2L-33.1,213.9L-33.1,213.9z M-114.8,378.7h-6.4h-5.9h-1.2v1h-7.5V394h-6.6v1h-8.9v-0.5h-7.1v14.2H-199v-59.3h-3.9v-30.2h-6.4
			v-15.3h6.4h8.9h6.1v-14.8h7.2v-14.8h-7.2v0.1h-7v14.7H-283v-14.8h-7.9v-0.5h-7.4V259h7.4v-14.8h7.9v-14.8h13.8v14.7h8.6v-15.2h-8
			v-15.3h12.9v0.7h23.9V214h0.3v-15.4h8.4v0.5h35.3V214h29.2v14.4h7.2h8.9v15.2h6.6v15.3h7.5v14.3h7.2v75.3h6.4L-114.8,378.7
			L-114.8,378.7z"/>
	</g>
	<path class="st6" d="M-404.8,436v-75.3h-7.1v-14.3h-7.4v-15.3h-6.6v-15.2h-8.8h-7.1v-14.4h-14v-15.4h-48.6l0,0h-1.5h-8.3h-7.9l0,0
		h-7.4v15.5h-8.8v-0.7H-551v15.3h8v15.2h-8.5v-14.7h-13.7v14.8h-7.9v14.8h-7.4v14.8h7.4v0.5h7.9v14.8h87.5v-14.7h7v-0.1h7.2v14.8
		h-7.2v14.8h-6.1h-8.8h-6.4v15.3h6.4V437h3.9v59.3h40.2V482h7v0.5h8.8v-1h6.6v-14.4h7.4v-1h1.2h5.9h6.4V436H-404.8z M-514.5,331.5
		h-7.6v-15.2h7.6V331.5z"/>
	
		<image style="display:inline;overflow:visible;enable-background:new    ;" width="444" height="411" xlink:href="../../../../Desktop/Screen Shot 2021-05-31 at 12.20.38 PM.png"  transform="matrix(0.9146 0 0 0.9146 90.5511 86.8293)">
	</image>
</g>
<g id="Layer_3">
	<rect x="236.4" y="99.8" class="st7" width="89.6" height="347.5"/>
	<rect x="110.1" y="238.9" class="st7" width="343.2" height="72.7"/>
	<rect x="206.6" y="117.6" class="st7" width="149.1" height="313.2"/>
	<rect x="176" y="134.4" class="st7" width="210.1" height="278.1"/>
	<rect x="155.2" y="151.8" class="st7" width="261.3" height="243.5"/>
	<rect x="138.8" y="169.6" class="st7" width="292" height="208.8"/>
	<rect x="124.5" y="186.9" class="st7" width="321.2" height="173.2"/>
	<rect x="236.8" y="221.5" class="st8" width="52.5" height="16.3"/>
	<rect x="198.7" y="238.9" class="st8" width="121.2" height="18.3"/>
	<rect x="185.4" y="256.7" class="st8" width="13.9" height="16.3"/>
	<rect x="207.1" y="255.7" class="st8" width="21.8" height="17.3"/>
	<rect x="236.3" y="256.2" class="st8" width="97" height="16.8"/>
	<rect x="177.4" y="273.5" class="st8" width="165.3" height="16.8"/>
	<rect x="184.9" y="290.8" class="st8" width="89.1" height="17.3"/>
	<rect x="289.3" y="291.3" class="st8" width="53.4" height="16.8"/>
	<rect x="282.3" y="308.1" class="st8" width="65.8" height="17.3"/>
	<rect x="266.5" y="325.5" class="st8" width="82.1" height="16.8"/>
	<rect x="272.4" y="343.3" class="st8" width="77.2" height="16.8"/>
	<rect x="273.9" y="360.1" class="st8" width="82.1" height="17.8"/>
	<rect x="273.9" y="377.9" class="st8" width="82.1" height="17.3"/>
	<rect x="273.9" y="395.2" class="st8" width="75.2" height="17.3"/>
	<rect x="273.9" y="412.6" class="st8" width="52.9" height="16.3"/>
</g>
<polygon class="st9" points="162.7,100.5 140.4,100.5 140.4,117.6 132.9,117.6 132.9,100.1 110.9,100.1 110.9,117.6 118.8,117.6 
	118.8,135 132.2,135 132.2,152.5 140.6,152.5 140.6,135 155.2,135 155.2,117.9 162.7,117.9 "/>
<g id="Layer_4">
	<g>
		<line class="st10" x1="103" y1="100.3" x2="475.9" y2="100.3"/>
		<line class="st10" x1="103" y1="430.3" x2="475.9" y2="430.3"/>
		<line class="st10" x1="103" y1="412.9" x2="475.9" y2="412.9"/>
		<line class="st10" x1="103" y1="395.6" x2="475.9" y2="395.6"/>
		<line class="st10" x1="103" y1="378.2" x2="475.9" y2="378.2"/>
		<line class="st10" x1="103" y1="360.8" x2="475.9" y2="360.8"/>
		<line class="st10" x1="103" y1="343.5" x2="475.9" y2="343.5"/>
		<line class="st10" x1="103" y1="326.1" x2="475.9" y2="326.1"/>
		<line class="st10" x1="103" y1="308.7" x2="475.9" y2="308.7"/>
		<line class="st10" x1="103" y1="291.4" x2="475.9" y2="291.4"/>
		<line class="st10" x1="103" y1="274" x2="475.9" y2="274"/>
		<line class="st10" x1="103" y1="256.6" x2="475.9" y2="256.6"/>
		<line class="st10" x1="103" y1="239.3" x2="475.9" y2="239.3"/>
		<line class="st10" x1="103" y1="221.9" x2="475.9" y2="221.9"/>
		<line class="st10" x1="103" y1="204.5" x2="475.9" y2="204.5"/>
		<line class="st10" x1="103" y1="187.1" x2="475.9" y2="187.1"/>
		<line class="st10" x1="103" y1="169.8" x2="475.9" y2="169.8"/>
		<line class="st10" x1="103" y1="152.4" x2="475.9" y2="152.4"/>
		<line class="st10" x1="103" y1="135" x2="475.9" y2="135"/>
		<line class="st10" x1="103" y1="117.7" x2="475.9" y2="117.7"/>
		<line class="st10" x1="103" y1="447.7" x2="475.9" y2="447.7"/>
		<line class="st10" x1="103" y1="100.3" x2="103" y2="447.7"/>
		<line class="st10" x1="468.4" y1="100.3" x2="468.4" y2="447.7"/>
		<line class="st10" x1="460.9" y1="100.3" x2="460.9" y2="447.7"/>
		<line class="st10" x1="453.5" y1="100.3" x2="453.5" y2="447.7"/>
		<line class="st10" x1="446" y1="100.3" x2="446" y2="447.7"/>
		<line class="st10" x1="438.6" y1="100.3" x2="438.6" y2="447.7"/>
		<line class="st10" x1="431.1" y1="100.3" x2="431.1" y2="447.7"/>
		<line class="st10" x1="423.7" y1="100.3" x2="423.7" y2="447.7"/>
		<line class="st10" x1="416.2" y1="100.3" x2="416.2" y2="447.7"/>
		<line class="st10" x1="408.7" y1="100.3" x2="408.7" y2="447.7"/>
		<line class="st10" x1="401.3" y1="100.3" x2="401.3" y2="447.7"/>
		<line class="st10" x1="393.8" y1="100.3" x2="393.8" y2="447.7"/>
		<line class="st10" x1="386.4" y1="100.3" x2="386.4" y2="447.7"/>
		<line class="st10" x1="378.9" y1="100.3" x2="378.9" y2="447.7"/>
		<line class="st10" x1="371.5" y1="100.3" x2="371.5" y2="447.7"/>
		<line class="st10" x1="364" y1="100.3" x2="364" y2="447.7"/>
		<line class="st10" x1="356.5" y1="100.3" x2="356.5" y2="447.7"/>
		<line class="st10" x1="349.1" y1="100.3" x2="349.1" y2="447.7"/>
		<line class="st10" x1="341.6" y1="100.3" x2="341.6" y2="447.7"/>
		<line class="st10" x1="334.2" y1="100.3" x2="334.2" y2="447.7"/>
		<line class="st10" x1="326.7" y1="100.3" x2="326.7" y2="447.7"/>
		<line class="st10" x1="319.3" y1="100.3" x2="319.3" y2="447.7"/>
		<line class="st10" x1="311.8" y1="100.3" x2="311.8" y2="447.7"/>
		<line class="st10" x1="304.3" y1="100.3" x2="304.3" y2="447.7"/>
		<line class="st10" x1="296.9" y1="100.3" x2="296.9" y2="447.7"/>
		<line class="st10" x1="289.4" y1="100.3" x2="289.4" y2="447.7"/>
		<line class="st10" x1="282" y1="100.3" x2="282" y2="447.7"/>
		<line class="st10" x1="274.5" y1="100.3" x2="274.5" y2="447.7"/>
		<line class="st10" x1="267.1" y1="100.3" x2="267.1" y2="447.7"/>
		<line class="st10" x1="259.6" y1="100.3" x2="259.6" y2="447.7"/>
		<line class="st10" x1="252.1" y1="100.3" x2="252.1" y2="447.7"/>
		<line class="st10" x1="244.7" y1="100.3" x2="244.7" y2="447.7"/>
		<line class="st10" x1="237.2" y1="100.3" x2="237.2" y2="447.7"/>
		<line class="st10" x1="229.8" y1="100.3" x2="229.8" y2="447.7"/>
		<line class="st10" x1="222.3" y1="100.3" x2="222.3" y2="447.7"/>
		<line class="st10" x1="214.9" y1="100.3" x2="214.9" y2="447.7"/>
		<line class="st10" x1="207.4" y1="100.3" x2="207.4" y2="447.7"/>
		<line class="st10" x1="199.9" y1="100.3" x2="199.9" y2="447.7"/>
		<line class="st10" x1="192.5" y1="100.3" x2="192.5" y2="447.7"/>
		<line class="st10" x1="185" y1="100.3" x2="185" y2="447.7"/>
		<line class="st10" x1="177.6" y1="100.3" x2="177.6" y2="447.7"/>
		<line class="st10" x1="170.1" y1="100.3" x2="170.1" y2="447.7"/>
		<line class="st10" x1="162.7" y1="100.3" x2="162.7" y2="447.7"/>
		<line class="st10" x1="155.2" y1="100.3" x2="155.2" y2="447.7"/>
		<line class="st10" x1="147.7" y1="100.3" x2="147.7" y2="447.7"/>
		<line class="st10" x1="140.3" y1="100.3" x2="140.3" y2="447.7"/>
		<line class="st10" x1="132.8" y1="100.3" x2="132.8" y2="447.7"/>
		<line class="st10" x1="125.4" y1="100.3" x2="125.4" y2="447.7"/>
		<line class="st10" x1="117.9" y1="100.3" x2="117.9" y2="447.7"/>
		<line class="st10" x1="110.5" y1="100.3" x2="110.5" y2="447.7"/>
		<line class="st10" x1="475.9" y1="100.3" x2="475.9" y2="447.7"/>
	</g>
	<text transform="matrix(1 0 0 1 104.0647 92.7971)" class="st11 st12">1</text>
	<text transform="matrix(1 0 0 1 93.6626 110.1167)" class="st11 st12">2</text>
	<text transform="matrix(1 0 0 1 93.6626 163.4159)" class="st11 st12">5</text>
	<text transform="matrix(1 0 0 1 92.1969 250.3535)" class="st11 st12">10</text>
	<text transform="matrix(1 0 0 1 92.1969 336.0012)" class="st11 st12">15</text>
	<text transform="matrix(1 0 0 1 92.1969 423.5887)" class="st11 st12">20</text>
	<text transform="matrix(1 0 0 1 134.1245 92.7971)" class="st11 st12">5</text>
	<text transform="matrix(1 0 0 1 169.9499 92.7971)" class="st11 st12">10</text>
	<text transform="matrix(1 0 0 1 207.3392 92.7971)" class="st11 st12">15</text>
	<text transform="matrix(1 0 0 1 245.0632 92.7971)" class="st11 st12">20</text>
	<text transform="matrix(1 0 0 1 282.6248 92.7971)" class="st11 st12">25</text>
	<text transform="matrix(1 0 0 1 319.7631 92.7971)" class="st11 st12">30</text>
	<text transform="matrix(1 0 0 1 356.8516 92.7971)" class="st11 st12">35</text>
	<text transform="matrix(1 0 0 1 394.2806 92.7971)" class="st11 st12">40</text>
	<text transform="matrix(1 0 0 1 431.5524 92.7971)" class="st11 st12">45</text>
	<text transform="matrix(1 0 0 1 104.0647 457.5809)" class="st11 st12">1</text>
	<text transform="matrix(1 0 0 1 134.1245 457.5809)" class="st11 st12">5</text>
	<text transform="matrix(1 0 0 1 169.9499 457.5809)" class="st11 st12">10</text>
	<text transform="matrix(1 0 0 1 207.3392 457.5809)" class="st11 st12">15</text>
	<text transform="matrix(1 0 0 1 245.0632 457.5809)" class="st11 st12">20</text>
	<text transform="matrix(1 0 0 1 282.6248 457.5809)" class="st11 st12">25</text>
	<text transform="matrix(1 0 0 1 319.7631 457.5809)" class="st11 st12">30</text>
	<text transform="matrix(1 0 0 1 356.8516 457.5809)" class="st11 st12">35</text>
	<text transform="matrix(1 0 0 1 394.2806 457.5809)" class="st11 st12">40</text>
	<text transform="matrix(1 0 0 1 431.5524 457.5809)" class="st11 st12">45</text>
</g>
</svg>
